# xmcd
#
# Track frame offsets: 
#        150
#        15697
#        30801
#        53813
#        74895
#        87776
#        103669
#        126132
#        147727
#        165685
#        187305
#        205509
#        226303
#        241542
#        261207
#        274409
#        288786
#        300988
#        321025
#        342427
#
# Disc length: 4701 seconds
#
# Revision: 0
# Processed by: cddbd v1.5.2PL0 Copyright (c) Steve Scherf et al.
# Submitted via: ExactAudioCopyFreeDBPlugin 1.0
#
DISCID=1f125b14
DTITLE=Various Artist - Kaikkien aikojen rakkauslaulut cd3
DYEAR=2009
DGENRE=
TTITLE0=Jenni Vartiainen - Ihmisten Edessä
TTITLE1=Lauri Tähkö - Pauhaava Sydän
TTITLE2=Egotrippi - Unihiekkaa
TTITLE3=Vesa-Matti Loiri - Voi kuinka me sinua kaivataan
TTITLE4=Agents and Ville Valo - Paratiisi
TTITLE5=Scandinavian Music Group - Hölmö rakkaus
TTITLE6=Yö - Rakkaus on lumivalkoinen
TTITLE7=Toni Virtanen - Romanssi
TTITLE8=Kauko Röyhkä - Lauralle
TTITLE9=Eppu Normaali - En saa mielestä sinua
TTITLE10=Irina - Hiljaisuus
TTITLE11=Hector - Yhtenä iltana
TTITLE12=J.Karjalainen - Hän
TTITLE13=Zen Café - Piha ilman sadettajaa
TTITLE14=Tuomari Nurmio - Lemmenloruja
TTITLE15=Maija Vilkkumaa - Laulu rakastamisen vaikeudesta
TTITLE16=Nylon Beat - Nuoruustango
TTITLE17=Sielun Veljet - Rakkaudesta
TTITLE18=Sir Elwoodin Hiljaiset Värit - Älä mee
TTITLE19=Laura Närhi - Eilinen
EXTD=
EXTT0=
EXTT1=
EXTT2=
EXTT3=
EXTT4=
EXTT5=
EXTT6=
EXTT7=
EXTT8=
EXTT9=
EXTT10=
EXTT11=
EXTT12=
EXTT13=
EXTT14=
EXTT15=
EXTT16=
EXTT17=
EXTT18=
EXTT19=
PLAYORDER=
